<mxfile host="app.diagrams.net" modified="2023-01-16T03:48:49.136Z" agent="5.0 (Macintosh; Intel Mac OS X 10_15_7) AppleWebKit/537.36 (KHTML, like Gecko) Chrome/108.0.0.0 Safari/537.36" version="20.8.4" etag="hiG0eAcldMzwQwCr2fJM" type="github">
  <diagram id="Rr46U3gvB8DNaMYDxfNs" name="第 1 页">
    <mxGraphModel dx="1596" dy="857" grid="1" gridSize="10" guides="1" tooltips="1" connect="1" arrows="1" fold="1" page="1" pageScale="1" pageWidth="827" pageHeight="1169" math="0" shadow="0">
      <root>
        <mxCell id="0" />
        <mxCell id="1" parent="0" />
        <mxCell id="fl91Mv_S_8rIT4KMCnoc-38" value="" style="rounded=0;whiteSpace=wrap;html=1;dashed=1;dashPattern=1 1;" vertex="1" parent="1">
          <mxGeometry x="100" y="470" width="580" height="140" as="geometry" />
        </mxCell>
        <mxCell id="fl91Mv_S_8rIT4KMCnoc-2" value="IRTCEngine" style="swimlane;fontStyle=1;align=center;verticalAlign=top;childLayout=stackLayout;horizontal=1;startSize=26;horizontalStack=0;resizeParent=1;resizeParentMax=0;resizeLast=0;collapsible=1;marginBottom=0;" vertex="1" parent="1">
          <mxGeometry x="310" y="160" width="160" height="70" as="geometry" />
        </mxCell>
        <mxCell id="fl91Mv_S_8rIT4KMCnoc-4" value="" style="line;strokeWidth=1;fillColor=none;align=left;verticalAlign=middle;spacingTop=-1;spacingLeft=3;spacingRight=3;rotatable=0;labelPosition=right;points=[];portConstraint=eastwest;strokeColor=inherit;" vertex="1" parent="fl91Mv_S_8rIT4KMCnoc-2">
          <mxGeometry y="26" width="160" height="8" as="geometry" />
        </mxCell>
        <mxCell id="fl91Mv_S_8rIT4KMCnoc-5" value="+ joinChannel()&#xa;        ..." style="text;strokeColor=none;fillColor=none;align=left;verticalAlign=top;spacingLeft=4;spacingRight=4;overflow=hidden;rotatable=0;points=[[0,0.5],[1,0.5]];portConstraint=eastwest;" vertex="1" parent="fl91Mv_S_8rIT4KMCnoc-2">
          <mxGeometry y="34" width="160" height="36" as="geometry" />
        </mxCell>
        <mxCell id="fl91Mv_S_8rIT4KMCnoc-6" value="AgoraRTCEngine" style="swimlane;fontStyle=1;align=center;verticalAlign=top;childLayout=stackLayout;horizontal=1;startSize=26;horizontalStack=0;resizeParent=1;resizeParentMax=0;resizeLast=0;collapsible=1;marginBottom=0;" vertex="1" parent="1">
          <mxGeometry x="170" y="370" width="160" height="60" as="geometry" />
        </mxCell>
        <mxCell id="fl91Mv_S_8rIT4KMCnoc-8" value="" style="line;strokeWidth=1;fillColor=none;align=left;verticalAlign=middle;spacingTop=-1;spacingLeft=3;spacingRight=3;rotatable=0;labelPosition=right;points=[];portConstraint=eastwest;strokeColor=inherit;" vertex="1" parent="fl91Mv_S_8rIT4KMCnoc-6">
          <mxGeometry y="26" width="160" height="8" as="geometry" />
        </mxCell>
        <mxCell id="fl91Mv_S_8rIT4KMCnoc-9" value="+ joinChannel()" style="text;strokeColor=none;fillColor=none;align=left;verticalAlign=top;spacingLeft=4;spacingRight=4;overflow=hidden;rotatable=0;points=[[0,0.5],[1,0.5]];portConstraint=eastwest;" vertex="1" parent="fl91Mv_S_8rIT4KMCnoc-6">
          <mxGeometry y="34" width="160" height="26" as="geometry" />
        </mxCell>
        <mxCell id="fl91Mv_S_8rIT4KMCnoc-10" value="" style="endArrow=block;dashed=1;endFill=0;endSize=12;html=1;rounded=0;exitX=0.5;exitY=0;exitDx=0;exitDy=0;entryX=0.372;entryY=1.075;entryDx=0;entryDy=0;entryPerimeter=0;" edge="1" parent="1" source="fl91Mv_S_8rIT4KMCnoc-6" target="fl91Mv_S_8rIT4KMCnoc-5">
          <mxGeometry width="160" relative="1" as="geometry">
            <mxPoint x="330" y="520" as="sourcePoint" />
            <mxPoint x="370" y="270" as="targetPoint" />
            <Array as="points">
              <mxPoint x="250" y="320" />
              <mxPoint x="370" y="320" />
            </Array>
          </mxGeometry>
        </mxCell>
        <mxCell id="fl91Mv_S_8rIT4KMCnoc-11" value="TRTCRTCEngine" style="swimlane;fontStyle=1;align=center;verticalAlign=top;childLayout=stackLayout;horizontal=1;startSize=26;horizontalStack=0;resizeParent=1;resizeParentMax=0;resizeLast=0;collapsible=1;marginBottom=0;" vertex="1" parent="1">
          <mxGeometry x="450" y="370" width="160" height="60" as="geometry" />
        </mxCell>
        <mxCell id="fl91Mv_S_8rIT4KMCnoc-13" value="" style="line;strokeWidth=1;fillColor=none;align=left;verticalAlign=middle;spacingTop=-1;spacingLeft=3;spacingRight=3;rotatable=0;labelPosition=right;points=[];portConstraint=eastwest;strokeColor=inherit;" vertex="1" parent="fl91Mv_S_8rIT4KMCnoc-11">
          <mxGeometry y="26" width="160" height="8" as="geometry" />
        </mxCell>
        <mxCell id="fl91Mv_S_8rIT4KMCnoc-14" value="+ joinChannel()" style="text;strokeColor=none;fillColor=none;align=left;verticalAlign=top;spacingLeft=4;spacingRight=4;overflow=hidden;rotatable=0;points=[[0,0.5],[1,0.5]];portConstraint=eastwest;" vertex="1" parent="fl91Mv_S_8rIT4KMCnoc-11">
          <mxGeometry y="34" width="160" height="26" as="geometry" />
        </mxCell>
        <mxCell id="fl91Mv_S_8rIT4KMCnoc-15" value="" style="endArrow=block;dashed=1;endFill=0;endSize=12;html=1;rounded=0;exitX=0.5;exitY=0;exitDx=0;exitDy=0;entryX=0.603;entryY=1.049;entryDx=0;entryDy=0;entryPerimeter=0;" edge="1" parent="1" source="fl91Mv_S_8rIT4KMCnoc-11" target="fl91Mv_S_8rIT4KMCnoc-5">
          <mxGeometry width="160" relative="1" as="geometry">
            <mxPoint x="260" y="380" as="sourcePoint" />
            <mxPoint x="430" y="290" as="targetPoint" />
            <Array as="points">
              <mxPoint x="530" y="320" />
              <mxPoint x="406" y="320" />
            </Array>
          </mxGeometry>
        </mxCell>
        <mxCell id="fl91Mv_S_8rIT4KMCnoc-16" value="RTCEngineManager" style="swimlane;fontStyle=1;align=center;verticalAlign=top;childLayout=stackLayout;horizontal=1;startSize=26;horizontalStack=0;resizeParent=1;resizeParentMax=0;resizeLast=0;collapsible=1;marginBottom=0;" vertex="1" parent="1">
          <mxGeometry x="590" y="162" width="250" height="120" as="geometry" />
        </mxCell>
        <mxCell id="fl91Mv_S_8rIT4KMCnoc-17" value="+ isTRTC : Boolean" style="text;strokeColor=none;fillColor=none;align=left;verticalAlign=top;spacingLeft=4;spacingRight=4;overflow=hidden;rotatable=0;points=[[0,0.5],[1,0.5]];portConstraint=eastwest;" vertex="1" parent="fl91Mv_S_8rIT4KMCnoc-16">
          <mxGeometry y="26" width="250" height="26" as="geometry" />
        </mxCell>
        <mxCell id="fl91Mv_S_8rIT4KMCnoc-18" value="" style="line;strokeWidth=1;fillColor=none;align=left;verticalAlign=middle;spacingTop=-1;spacingLeft=3;spacingRight=3;rotatable=0;labelPosition=right;points=[];portConstraint=eastwest;strokeColor=inherit;" vertex="1" parent="fl91Mv_S_8rIT4KMCnoc-16">
          <mxGeometry y="52" width="250" height="8" as="geometry" />
        </mxCell>
        <mxCell id="fl91Mv_S_8rIT4KMCnoc-19" value="+  create(siTRTC, sdkAPPId) : IRTCEngine&#xa;+ destory()" style="text;strokeColor=none;fillColor=none;align=left;verticalAlign=top;spacingLeft=4;spacingRight=4;overflow=hidden;rotatable=0;points=[[0,0.5],[1,0.5]];portConstraint=eastwest;" vertex="1" parent="fl91Mv_S_8rIT4KMCnoc-16">
          <mxGeometry y="60" width="250" height="60" as="geometry" />
        </mxCell>
        <mxCell id="fl91Mv_S_8rIT4KMCnoc-21" value="Use" style="endArrow=open;endSize=12;dashed=1;html=1;rounded=0;exitX=-0.01;exitY=0.634;exitDx=0;exitDy=0;exitPerimeter=0;entryX=1.017;entryY=0.286;entryDx=0;entryDy=0;entryPerimeter=0;" edge="1" parent="1" source="fl91Mv_S_8rIT4KMCnoc-17" target="fl91Mv_S_8rIT4KMCnoc-5">
          <mxGeometry width="160" relative="1" as="geometry">
            <mxPoint x="450" y="400" as="sourcePoint" />
            <mxPoint x="610" y="400" as="targetPoint" />
          </mxGeometry>
        </mxCell>
        <mxCell id="fl91Mv_S_8rIT4KMCnoc-27" value="RTCEngine" style="swimlane;fontStyle=1;align=center;verticalAlign=top;childLayout=stackLayout;horizontal=1;startSize=26;horizontalStack=0;resizeParent=1;resizeParentMax=0;resizeLast=0;collapsible=1;marginBottom=0;" vertex="1" parent="1">
          <mxGeometry x="170" y="510" width="160" height="60" as="geometry" />
        </mxCell>
        <mxCell id="fl91Mv_S_8rIT4KMCnoc-29" value="" style="line;strokeWidth=1;fillColor=none;align=left;verticalAlign=middle;spacingTop=-1;spacingLeft=3;spacingRight=3;rotatable=0;labelPosition=right;points=[];portConstraint=eastwest;strokeColor=inherit;" vertex="1" parent="fl91Mv_S_8rIT4KMCnoc-27">
          <mxGeometry y="26" width="160" height="8" as="geometry" />
        </mxCell>
        <mxCell id="fl91Mv_S_8rIT4KMCnoc-30" value="+ joinChannel()" style="text;strokeColor=none;fillColor=none;align=left;verticalAlign=top;spacingLeft=4;spacingRight=4;overflow=hidden;rotatable=0;points=[[0,0.5],[1,0.5]];portConstraint=eastwest;" vertex="1" parent="fl91Mv_S_8rIT4KMCnoc-27">
          <mxGeometry y="34" width="160" height="26" as="geometry" />
        </mxCell>
        <mxCell id="fl91Mv_S_8rIT4KMCnoc-32" value="" style="endArrow=open;endFill=1;endSize=12;html=1;rounded=0;exitX=0.49;exitY=0.954;exitDx=0;exitDy=0;exitPerimeter=0;entryX=0.5;entryY=0;entryDx=0;entryDy=0;" edge="1" parent="1" source="fl91Mv_S_8rIT4KMCnoc-9" target="fl91Mv_S_8rIT4KMCnoc-27">
          <mxGeometry width="160" relative="1" as="geometry">
            <mxPoint x="450" y="450" as="sourcePoint" />
            <mxPoint x="241" y="510" as="targetPoint" />
          </mxGeometry>
        </mxCell>
        <mxCell id="fl91Mv_S_8rIT4KMCnoc-34" value="TRTCCloud" style="swimlane;fontStyle=1;align=center;verticalAlign=top;childLayout=stackLayout;horizontal=1;startSize=26;horizontalStack=0;resizeParent=1;resizeParentMax=0;resizeLast=0;collapsible=1;marginBottom=0;" vertex="1" parent="1">
          <mxGeometry x="460" y="510" width="160" height="60" as="geometry" />
        </mxCell>
        <mxCell id="fl91Mv_S_8rIT4KMCnoc-35" value="" style="line;strokeWidth=1;fillColor=none;align=left;verticalAlign=middle;spacingTop=-1;spacingLeft=3;spacingRight=3;rotatable=0;labelPosition=right;points=[];portConstraint=eastwest;strokeColor=inherit;" vertex="1" parent="fl91Mv_S_8rIT4KMCnoc-34">
          <mxGeometry y="26" width="160" height="8" as="geometry" />
        </mxCell>
        <mxCell id="fl91Mv_S_8rIT4KMCnoc-36" value="+ enterRoom()" style="text;strokeColor=none;fillColor=none;align=left;verticalAlign=top;spacingLeft=4;spacingRight=4;overflow=hidden;rotatable=0;points=[[0,0.5],[1,0.5]];portConstraint=eastwest;" vertex="1" parent="fl91Mv_S_8rIT4KMCnoc-34">
          <mxGeometry y="34" width="160" height="26" as="geometry" />
        </mxCell>
        <mxCell id="fl91Mv_S_8rIT4KMCnoc-37" value="" style="endArrow=open;endFill=1;endSize=12;html=1;rounded=0;exitX=0.563;exitY=1;exitDx=0;exitDy=0;exitPerimeter=0;entryX=0.5;entryY=0;entryDx=0;entryDy=0;" edge="1" parent="1" source="fl91Mv_S_8rIT4KMCnoc-14" target="fl91Mv_S_8rIT4KMCnoc-34">
          <mxGeometry width="160" relative="1" as="geometry">
            <mxPoint x="258.4000000000001" y="438.8040000000001" as="sourcePoint" />
            <mxPoint x="260" y="520" as="targetPoint" />
          </mxGeometry>
        </mxCell>
        <mxCell id="fl91Mv_S_8rIT4KMCnoc-39" value="&lt;font style=&quot;font-size: 11px;&quot;&gt;说明：&lt;br style=&quot;font-size: 11px;&quot;&gt;1、IRTCEngine 中封装了客户需要使用的API&lt;br style=&quot;font-size: 11px;&quot;&gt;2、可以通过RTCEngineManager 获取IRTCEngine实例对象&lt;/font&gt;" style="text;html=1;strokeColor=none;fillColor=none;align=left;verticalAlign=middle;whiteSpace=wrap;rounded=0;dashed=1;dashPattern=1 1;labelBackgroundColor=#FFFFCC;" vertex="1" parent="1">
          <mxGeometry x="20" y="80" width="370" height="40" as="geometry" />
        </mxCell>
        <mxCell id="fl91Mv_S_8rIT4KMCnoc-40" value="&lt;font style=&quot;font-size: 14px;&quot;&gt;&lt;b&gt;SDK&lt;/b&gt;&lt;/font&gt;" style="text;html=1;strokeColor=none;fillColor=none;align=center;verticalAlign=middle;whiteSpace=wrap;rounded=0;dashed=1;dashPattern=1 1;" vertex="1" parent="1">
          <mxGeometry x="90" y="470" width="60" height="30" as="geometry" />
        </mxCell>
      </root>
    </mxGraphModel>
  </diagram>
</mxfile>
